HIERARCHY
ROOT Hips
{
	OFFSET 0.000000 0.000000 0.000000
	CHANNELS 6 Xposition Yposition Zposition Xrotation Yrotation Zrotation
	JOINT LeftUpLeg_virtual
	{
		OFFSET 0.000000 0.000000 0.000000
		CHANNELS 3 Xrotation Yrotation Zrotation
		JOINT LeftUpLeg
		{
			OFFSET 10.205400 -3.823500 0.155100
			CHANNELS 3 Xrotation Yrotation Zrotation
			JOINT LeftLeg
			{
				OFFSET 0.708757 -12.982077 0.567790
				CHANNELS 3 Xrotation Yrotation Zrotation
				JOINT LeftFoot
				{
					OFFSET -0.708756 -10.717838 -2.184338
					CHANNELS 3 Xrotation Yrotation Zrotation
					JOINT LeftToeBase
					{
						OFFSET 0.108149 -7.191104 7.560241
						CHANNELS 3 Xrotation Yrotation Zrotation
						JOINT LeftToe_End
						{
							OFFSET 0.070230 0.081724 4.490308
							CHANNELS 3 Xrotation Yrotation Zrotation
							End Site
							{
								OFFSET 0 0 0
							}
						}
					}
				}
			}
		}
	}
	JOINT RightUpLeg_virtual
	{
		OFFSET 0.000000 0.000000 0.000000
		CHANNELS 3 Xrotation Yrotation Zrotation
		JOINT RightUpLeg
		{
			OFFSET -10.205400 -3.823500 0.005500
			CHANNELS 3 Xrotation Yrotation Zrotation
			JOINT RightLeg
			{
				OFFSET -0.708756 -12.982134 0.610632
				CHANNELS 3 Xrotation Yrotation Zrotation
				JOINT RightFoot
				{
					OFFSET 0.708754 -10.717769 -1.945823
					CHANNELS 3 Xrotation Yrotation Zrotation
					JOINT RightToeBase
					{
						OFFSET -0.108140 -7.191069 7.372968
						CHANNELS 3 Xrotation Yrotation Zrotation
						JOINT RightToe_End
						{
							OFFSET -0.070227 0.081735 4.479403
							CHANNELS 3 Xrotation Yrotation Zrotation
							End Site
							{
								OFFSET 0 0 0
							}
						}
					}
				}
			}
		}
	}
	JOINT Spine_virtual
	{
		OFFSET 0.000000 0.000000 0.000000
		CHANNELS 3 Xrotation Yrotation Zrotation
		JOINT Spine
		{
			OFFSET 0.000000 6.876099 0.125700
			CHANNELS 3 Xrotation Yrotation Zrotation
			JOINT Spine1
			{
				OFFSET 0.000000 5.730043 0.104720
				CHANNELS 3 Xrotation Yrotation Zrotation
				JOINT Spine1_split
				{
					OFFSET 0.000000 5.730043 0.104720
					CHANNELS 3 Xrotation Yrotation Zrotation
					JOINT Spine2
					{
						OFFSET 0.000000 5.730043 0.104720
						CHANNELS 3 Xrotation Yrotation Zrotation
						JOINT Neck_virtual
						{
							OFFSET 0.000000 0.000000 0.000000
							CHANNELS 3 Xrotation Yrotation Zrotation
							JOINT Neck
							{
								OFFSET 0.000000 10.314075 0.188496
								CHANNELS 3 Xrotation Yrotation Zrotation
								JOINT Head
								{
									OFFSET 0.000000 7.643700 -2.377400
									CHANNELS 3 Xrotation Yrotation Zrotation
									JOINT HeadTop_End
									{
										OFFSET 0.000000 43.788605 -13.619600
										CHANNELS 3 Xrotation Yrotation Zrotation
										End Site
										{
											OFFSET 0 0 0
										}
									}
								}
							}
						}
						JOINT LeftShoulder_virtual
						{
							OFFSET 0.000000 0.000000 0.000000
							CHANNELS 3 Xrotation Yrotation Zrotation
							JOINT LeftShoulder
							{
								OFFSET 2.196100 4.412489 0.087492
								CHANNELS 3 Xrotation Yrotation Zrotation
								JOINT LeftShoulder_split
								{
									OFFSET 2.196100 4.412489 0.087492
									CHANNELS 3 Xrotation Yrotation Zrotation
									JOINT LeftArm
									{
										OFFSET 8.771219 -2.981674 -0.026999
										CHANNELS 3 Xrotation Yrotation Zrotation
										JOINT LeftForeArm
										{
											OFFSET 8.512804 0.000000 -0.000000
											CHANNELS 3 Xrotation Yrotation Zrotation
											JOINT LeftHand
											{
												OFFSET 18.484802 0.000000 -0.000000
												CHANNELS 3 Xrotation Yrotation Zrotation
												End Site
												{
													OFFSET 0 0 0
												}
											}
										}
									}
								}
							}
						}
						JOINT RightShoulder_virtual
						{
							OFFSET 0.000000 0.000000 0.000000
							CHANNELS 3 Xrotation Yrotation Zrotation
							JOINT RightShoulder
							{
								OFFSET -2.196100 4.412496 0.070690
								CHANNELS 3 Xrotation Yrotation Zrotation
								JOINT RightShoulder_split
								{
									OFFSET -2.196100 4.412496 0.070690
									CHANNELS 3 Xrotation Yrotation Zrotation
									JOINT RightArm
									{
										OFFSET -8.771282 -2.981682 -0.094208
										CHANNELS 3 Xrotation Yrotation Zrotation
										JOINT RightForeArm
										{
											OFFSET -8.494598 0.000000 0.000000
											CHANNELS 3 Xrotation Yrotation Zrotation
											JOINT RightHand
											{
												OFFSET -18.483803 0.000000 0.000001
												CHANNELS 3 Xrotation Yrotation Zrotation
												End Site
												{
													OFFSET 0 0 0
												}
											}
										}
									}
								}
							}
						}
					}
				}
			}
		}
	}
}
MOTION
Frames: 9
Frame Time: 0.03333333
1.107999 31.537651 1.069769 0.000000 0.000000 0.000000 -10.425141 11.752014 -2.737618 -36.313490 25.993543 15.910567 45.277146 4.075752 6.170532 -0.215237 -15.697332 -4.127916 -6.418921 2.498805 1.139714 0.000000 0.000000 0.000000 -10.063791 13.577054 -2.940001 -10.498856 -21.641671 -0.018834 27.002296 8.994112 0.161737 -8.595622 3.724229 4.002382 1.421916 -7.664741 -29.162237 0.000000 0.000000 0.000000 -10.242929 15.932897 -4.196297 5.985124 0.449508 5.153008 4.926446 1.028076 0.567056 0.078342 -0.191474 -0.025452 0.000000 0.000000 0.000000 3.963861 4.341309 0.990254 19.242991 7.649701 0.344473 5.303987 -58.029622 -7.074014 0.000000 0.000000 0.000000 3.769391 2.155812 -0.881886 2.596754 4.764220 -9.084681 3.976990 -1.784638 -0.673740 78.981910 -66.007740 5.710999 2.545898 -17.881191 8.828856 0.000000 0.000000 0.000000 4.999031 2.679883 0.692695 -3.163439 -9.304832 5.535512 6.651558 -1.967666 0.838789 10.648554 43.014609 59.978077 -1.136653 12.017039 -7.928367 0.000000 0.000000 0.000000 
1.112788 31.535408 1.072180 0.000000 0.000000 0.000000 -10.418850 11.700667 -2.706370 -36.278198 26.065260 15.915280 45.272960 4.066328 6.149804 -0.253868 -15.686568 -4.134083 -6.413218 2.496392 1.157629 0.000000 0.000000 0.000000 -10.061366 13.511391 -2.907331 -10.596407 -21.483284 -0.065209 27.042910 8.991321 0.156289 -8.581932 3.697934 3.994656 1.456560 -7.679019 -29.087484 0.000000 0.000000 0.000000 -10.241487 15.875607 -4.164218 5.971580 0.454568 5.151419 4.913881 1.038090 0.561798 0.078530 -0.190643 -0.025652 0.000000 0.000000 0.000000 3.944500 4.353628 0.987422 19.252799 7.656746 0.319351 5.286947 -58.016986 -7.104189 0.000000 0.000000 0.000000 3.755021 2.165395 -0.885483 2.593333 4.759999 -9.126031 4.003725 -1.771604 -0.670284 78.822903 -65.942068 5.618379 2.606930 -17.971814 8.878937 0.000000 0.000000 0.000000 4.981850 2.691926 0.690353 -3.172675 -9.292699 5.485797 6.657848 -1.964316 0.852387 10.646213 43.010135 59.969730 -1.123184 12.016371 -7.914319 0.000000 0.000000 0.000000 
1.115847 31.530981 1.073957 0.000000 0.000000 0.000000 -10.415145 11.650015 -2.670071 -36.240331 26.117216 15.912889 45.268831 4.055266 6.125748 -0.285924 -15.671374 -4.125478 -6.412402 2.497634 1.162017 0.000000 0.000000 0.000000 -10.063156 13.447513 -2.869226 -10.714432 -21.320355 -0.128282 27.112935 9.002803 0.155575 -8.556007 3.695023 3.999002 1.457545 -7.684044 -29.016092 0.000000 0.000000 0.000000 -10.248577 15.828560 -4.124188 5.960236 0.457315 5.142185 4.903532 1.042994 0.557867 0.078689 -0.189861 -0.026475 0.000000 0.000000 0.000000 3.925981 4.361240 0.985187 19.281889 7.659833 0.293951 5.270629 -57.979727 -7.153677 0.000000 0.000000 0.000000 3.745174 2.169280 -0.887672 2.587813 4.751210 -9.163810 4.040607 -1.761763 -0.665170 78.564258 -65.877598 5.442004 2.668576 -18.069402 8.927836 0.000000 0.000000 0.000000 4.968292 2.699606 0.690233 -3.177567 -9.272420 5.461479 6.665200 -1.962663 0.860492 10.688497 42.995341 59.911995 -1.091884 12.058268 -7.907245 0.000000 0.000000 0.000000 
1.116783 31.523811 1.074741 0.000000 0.000000 0.000000 -10.415317 11.605422 -2.630662 -36.208779 26.146826 15.908516 45.274261 4.039386 6.100079 -0.305750 -15.654322 -4.104447 -6.416571 2.503225 1.150844 0.000000 0.000000 0.000000 -10.069015 13.395459 -2.828067 -10.847149 -21.170035 -0.209330 27.212298 9.031952 0.161117 -8.525402 3.720958 4.024486 1.426067 -7.677849 -28.960610 0.000000 0.000000 0.000000 -10.264491 15.796996 -4.078508 5.951108 0.457730 5.125276 4.896299 1.042843 0.555520 0.078901 -0.189944 -0.027338 0.000000 0.000000 0.000000 3.908938 4.364064 0.983670 19.332538 7.656853 0.272003 5.247959 -57.932401 -7.217558 0.000000 0.000000 0.000000 3.739517 2.168346 -0.888397 2.580861 4.739744 -9.193876 4.086814 -1.759461 -0.658218 78.245220 -65.819733 5.207501 2.729106 -18.165223 8.973263 0.000000 0.000000 0.000000 4.958906 2.703145 0.692370 -3.178750 -9.249587 5.462450 6.674395 -1.956775 0.863262 10.770146 42.971917 59.819049 -1.042814 12.130309 -7.906607 0.000000 0.000000 0.000000 
1.115342 31.514719 1.075268 0.000000 0.000000 0.000000 -10.418735 11.573520 -2.590863 -36.189723 26.156189 15.905943 45.293904 4.019778 6.073230 -0.313451 -15.637225 -4.072739 -6.420690 2.512837 1.125736 0.000000 0.000000 0.000000 -10.076655 13.362222 -2.787936 -10.978294 -21.043989 -0.302663 27.332539 9.072731 0.173872 -8.498998 3.771391 4.075910 1.374184 -7.661263 -28.928846 0.000000 0.000000 0.000000 -10.288085 15.782195 -4.031643 5.943938 0.455728 5.103366 4.891924 1.039288 0.555290 0.078712 -0.189771 -0.028352 0.000000 0.000000 0.000000 3.893715 4.363244 0.983361 19.404293 7.646340 0.254834 5.211164 -57.885976 -7.293256 0.000000 0.000000 0.000000 3.736516 2.164738 -0.887212 2.573389 4.727605 -9.214080 4.136694 -1.764448 -0.652960 77.910820 -65.770186 4.947404 2.786264 -18.252224 9.013299 0.000000 0.000000 0.000000 4.953842 2.704091 0.696413 -3.177577 -9.229045 5.487626 6.686301 -1.945400 0.861834 10.883381 42.939985 59.701003 -0.976956 12.220544 -7.911023 0.000000 0.000000 0.000000 
1.112138 31.504780 1.074709 0.000000 0.000000 0.000000 -10.423848 11.558521 -2.554482 -36.184672 26.150694 15.908279 45.323749 3.997985 6.046506 -0.310985 -15.620163 -4.034601 -6.416869 2.525980 1.090083 0.000000 0.000000 0.000000 -10.083716 13.355160 -2.752670 -11.091592 -20.945509 -0.397408 27.458057 9.114155 0.194190 -8.485404 3.834177 4.142774 1.322015 -7.638639 -28.920824 0.000000 0.000000 0.000000 -10.315992 15.781319 -3.988548 5.937892 0.451589 5.080259 4.890088 1.034104 0.557607 0.078170 -0.189463 -0.028068 0.000000 0.000000 0.000000 3.881246 4.360586 0.984837 19.493351 7.627085 0.241793 5.151602 -57.852563 -7.379888 0.000000 0.000000 0.000000 3.734531 2.160727 -0.883714 2.566824 4.718671 -9.224911 4.183496 -1.778627 -0.654248 77.597943 -65.725428 4.694530 2.836688 -18.326736 9.045209 0.000000 0.000000 0.000000 4.952092 2.704017 0.702315 -3.174863 -9.214545 5.532879 6.697463 -1.928747 0.859168 11.022524 42.897283 59.563232 -0.898469 12.324392 -7.918633 0.000000 0.000000 0.000000 
1.107760 31.495438 1.073250 0.000000 0.000000 0.000000 -10.429558 11.565290 -2.524794 -36.195252 26.136586 15.916101 45.355458 3.976060 6.021310 -0.304186 -15.604566 -3.997559 -6.404406 2.540994 1.050997 0.000000 0.000000 0.000000 -10.086417 13.375761 -2.725273 -11.174495 -20.872117 -0.481575 27.565284 9.143297 0.221355 -8.493968 3.892449 4.210245 1.287080 -7.615325 -28.930755 0.000000 0.000000 0.000000 -10.340944 15.796108 -3.954653 5.931030 0.445306 5.060258 4.888642 1.029610 0.562194 0.077389 -0.188509 -0.027759 0.000000 0.000000 0.000000 3.871968 4.358290 0.988536 19.591785 7.599626 0.229519 5.066908 -57.835344 -7.474201 0.000000 0.000000 0.000000 3.732180 2.158623 -0.877650 2.562658 4.716383 -9.229877 4.214171 -1.788891 -0.669068 77.331579 -65.680588 4.474617 2.875617 -18.388802 9.066894 0.000000 0.000000 0.000000 4.951184 2.704686 0.709873 -3.171890 -9.207216 5.592178 6.707338 -1.904915 0.861274 11.184603 42.842625 59.408760 -0.811508 12.437980 -7.927124 0.000000 0.000000 0.000000 
1.102807 31.488327 1.070887 0.000000 0.000000 0.000000 -10.432301 11.588235 -2.504652 -36.214107 26.123247 15.927226 45.376334 3.956333 5.999819 -0.296681 -15.592296 -3.965834 -6.389890 2.555660 1.017682 0.000000 0.000000 0.000000 -10.083589 13.420390 -2.706993 -11.218368 -20.817841 -0.545755 27.633339 9.150098 0.252656 -8.521677 3.934685 4.265727 1.277668 -7.594907 -28.949904 0.000000 0.000000 0.000000 -10.356099 15.821969 -3.933847 5.922519 0.437212 5.047006 4.885830 1.027535 0.568791 0.076441 -0.186963 -0.026966 0.000000 0.000000 0.000000 3.866255 4.358079 0.995035 19.692479 7.565742 0.215913 4.965574 -57.837864 -7.568771 0.000000 0.000000 0.000000 3.727599 2.160020 -0.869742 2.561860 4.723810 -9.233685 4.227767 -1.796279 -0.695014 77.119522 -65.628665 4.300618 2.900852 -18.446618 9.078567 0.000000 0.000000 0.000000 4.949102 2.707494 0.718683 -3.168869 -9.207503 5.659431 6.715319 -1.882691 0.867628 11.367016 42.776911 59.238272 -0.721943 12.556168 -7.934618 0.000000 0.000000 0.000000 
1.098389 31.484226 1.068115 0.000000 0.000000 0.000000 -10.430674 11.623226 -2.494209 -36.236503 26.116152 15.941370 45.380617 3.938239 5.985772 -0.287702 -15.586179 -3.946492 -6.377137 2.568149 0.996072 0.000000 0.000000 0.000000 -10.074094 13.477978 -2.697010 -11.231917 -20.775422 -0.586621 27.648339 9.136178 0.283152 -8.558832 3.955083 4.304130 1.297531 -7.582640 -28.970193 0.000000 0.000000 0.000000 -10.358710 15.855794 -3.925931 5.912733 0.427724 5.042295 4.879626 1.029280 0.576643 0.075656 -0.186549 -0.026221 0.000000 0.000000 0.000000 3.863688 4.361095 1.004301 19.785784 7.528229 0.198904 4.862725 -57.858560 -7.651045 0.000000 0.000000 0.000000 3.719658 2.165652 -0.861023 2.564388 4.742701 -9.242250 4.217182 -1.800069 -0.730150 76.962906 -65.564086 4.176177 2.913797 -18.507777 9.082246 0.000000 0.000000 0.000000 4.943569 2.712945 0.728400 -3.165702 -9.214624 5.727658 6.723785 -1.861134 0.880000 11.562070 42.704238 59.061206 -0.636960 12.669799 -7.939291 0.000000 0.000000 0.000000 
